<svg xmlns="http://www.w3.org/2000/svg" width="16.844" height="11.234" viewBox="0 0 16.844 11.234">
  <path id="Icon_ionic-ios-arrow-round-back" data-name="Icon ionic-ios-arrow-round-back" d="M13.984,11.467a.765.765,0,0,1,.006,1.077l-3.551,3.563H23.972a.761.761,0,0,1,0,1.521H10.439L14,21.191a.77.77,0,0,1-.006,1.077.757.757,0,0,1-1.071-.006L8.1,17.405h0a.854.854,0,0,1-.158-.24.726.726,0,0,1-.059-.293A.763.763,0,0,1,8.1,16.34l4.821-4.856A.745.745,0,0,1,13.984,11.467Z" transform="translate(24.726 22.486) rotate(180)" fill="#fff"/>
</svg>
