<svg id="Attachment_1604593504" xmlns="http://www.w3.org/2000/svg" width="165" height="98.295" viewBox="0 0 165 98.295">
  <g id="Attachment_1604593504-2" data-name="Attachment_1604593504" transform="translate(0.025 0.007)" style="isolation: isolate">
    <g id="Layer_2" data-name="Layer 2" transform="translate(-0.025 -0.007)">
      <g id="Layer_1" data-name="Layer 1">
        <path id="Path_11" data-name="Path 11" d="M162.963,87.839h0l-19.824-33.59a3.3,3.3,0,0,0-2.089-1.65c-.585-.146-2.6-.543-4.47-.919v3.885l.111-.216,19.977,33.84a3.287,3.287,0,0,0,2.221,1.671l8.119,1.706C168.561,92.915,162.963,87.839,162.963,87.839Z" transform="translate(-41.461 -15.69)" fill="#f7f7f7"/>
        <path id="Path_12" data-name="Path 12" d="M102.523,121.423H91.382c-19.5,0-20.242-20.242-43.31-20.242-18.16,0-12.109,20.242-34.425,20.242H5.291a5.32,5.32,0,0,1-4.6-7.994l17.672-30.3A13.975,13.975,0,0,1,30.442,76.17H65.856C77.185,76.17,89.022,82.2,94.711,92l12.415,21.411a5.32,5.32,0,0,1-4.6,8.008Z" transform="translate(0.025 -23.128)" fill="#f7f7f7"/>
        <path id="Path_13" data-name="Path 13" d="M47.18,90.973c-14.622,20.158-13.23,18.146-14.622,20.158-3.572,5.118-7.6,10.291-18.891,10.291H5.311a5.32,5.32,0,0,1-4.6-7.994l17.658-30.3A13.975,13.975,0,0,1,30.448,76.17H65.862A35.337,35.337,0,0,1,88.742,84.8C72.811,76.643,54.7,80.612,47.18,90.973Z" transform="translate(0.019 -23.128)" fill="#f7f7f7"/>
        <path id="Path_14" data-name="Path 14" d="M90.865,44.192H61.822a12.652,12.652,0,0,1-11.057-18.8L63.43,2.6a5.048,5.048,0,0,1,8.78-.091L93.657,39.332a3.231,3.231,0,0,1-2.792,4.86Z" transform="translate(-14.915 0.007)" fill="#f7f7f7"/>
        <path id="Path_15" data-name="Path 15" d="M82.013,20.67,63.666,4.732a5.426,5.426,0,0,0-.453-.362L50.756,26.728a12.464,12.464,0,0,0-1.267,9.052A33.478,33.478,0,0,1,84,24.089Z" transform="translate(-14.907 -1.322)" fill="#d3d3d3" style="mix-blend-mode: multiply;isolation: isolate"/>
        <path id="Path_16" data-name="Path 16" d="M69.909,16.013a23.145,23.145,0,0,1,14.448,5.041L73.571,2.5a5.048,5.048,0,0,0-8.78.091L53.65,22.649a23.187,23.187,0,0,1,16.259-6.636Z" transform="translate(-16.276 0.007)" fill="#f7f7f7"/>
        <g id="Group_24" data-name="Group 24" transform="translate(21.06 57.319)" style="mix-blend-mode: multiply;isolation: isolate">
          <path id="Path_17" data-name="Path 17" d="M43.82,130.1l.473-.606Z" transform="translate(-34.35 -96.639)" fill="#f7f7f7"/>
          <path id="Path_18" data-name="Path 18" d="M42.14,132.063l.543-.613Z" transform="translate(-33.84 -97.235)" fill="#f7f7f7"/>
          <path id="Path_19" data-name="Path 19" d="M43,131.131c.181-.209.362-.425.536-.641A5.336,5.336,0,0,0,43,131.131Z" transform="translate(-34.101 -96.943)" fill="#f7f7f7"/>
          <path id="Path_20" data-name="Path 20" d="M44.56,129.138l.48-.648Z" transform="translate(-34.575 -96.336)" fill="#f7f7f7"/>
          <path id="Path_21" data-name="Path 21" d="M41.19,133.047q.313-.313.606-.627Q41.5,132.733,41.19,133.047Z" transform="translate(-33.552 -97.529)" fill="#f7f7f7"/>
          <path id="Path_22" data-name="Path 22" d="M45.38,128.058l.418-.578Z" transform="translate(-34.824 -96.029)" fill="#f7f7f7"/>
          <path id="Path_23" data-name="Path 23" d="M88.374,82.373c-10.828-.62-20.764,3.482-25.847,10.445-6.963,9.539-10.257,14.114-12,16.5,2.785-3.482,6.162-6.267,12.9-6.267.766,0,1.511,0,2.235.07l5.849-10.277A21.021,21.021,0,0,1,88.374,82.373Z" transform="translate(-36.388 -82.312)" fill="#b4b4b4"/>
          <path id="Path_24" data-name="Path 24" d="M46.06,127.081c.153-.209.3-.425.453-.641C46.359,126.656,46.213,126.872,46.06,127.081Z" transform="translate(-35.031 -95.713)" fill="#f7f7f7"/>
          <path id="Path_25" data-name="Path 25" d="M38.21,135.657c.244-.181.487-.369.7-.557C38.7,135.288,38.454,135.476,38.21,135.657Z" transform="translate(-32.647 -98.343)" fill="#f7f7f7"/>
          <path id="Path_26" data-name="Path 26" d="M31.73,139.153c.348-.118.7-.251,1-.383A8.275,8.275,0,0,1,31.73,139.153Z" transform="translate(-30.679 -99.458)" fill="#f7f7f7"/>
          <path id="Path_27" data-name="Path 27" d="M33.22,138.565l.933-.425Z" transform="translate(-31.131 -99.266)" fill="#f7f7f7"/>
          <path id="Path_28" data-name="Path 28" d="M30.22,139.664c.355-.1.7-.216,1.037-.334C30.923,139.448,30.575,139.56,30.22,139.664Z" transform="translate(-30.22 -99.628)" fill="#f7f7f7"/>
          <path id="Path_29" data-name="Path 29" d="M40.28,133.929c.216-.195.425-.4.627-.6C40.7,133.532,40.5,133.734,40.28,133.929Z" transform="translate(-33.275 -97.806)" fill="#f7f7f7"/>
          <path id="Path_30" data-name="Path 30" d="M39.24,134.842c.237-.195.46-.39.7-.592C39.7,134.452,39.477,134.647,39.24,134.842Z" transform="translate(-32.959 -98.085)" fill="#f7f7f7"/>
          <path id="Path_31" data-name="Path 31" d="M35.87,136.977a16.09,16.09,0,0,0,1.595-1.037A16.09,16.09,0,0,1,35.87,136.977Z" transform="translate(-31.936 -98.598)" fill="#f7f7f7"/>
          <path id="Path_32" data-name="Path 32" d="M34.56,137.933c.3-.153.592-.313.877-.473C35.152,137.62,34.866,137.78,34.56,137.933Z" transform="translate(-31.538 -99.06)" fill="#f7f7f7"/>
        </g>
        <path id="Path_33" data-name="Path 33" d="M209.83,68.74h-18.96a13.926,13.926,0,0,0-13.23,9.7L174.52,93.02a34.746,34.746,0,0,0,1.991,3.482,3.433,3.433,0,0,0,1.824,1.246l.209.042a3.342,3.342,0,0,0,3.92-2.263l3.294-15.319A13.926,13.926,0,0,1,199.044,70.5h18.939Z" transform="translate(-52.983 -20.871)" fill="#f7f7f7"/>
        <path id="Path_34" data-name="Path 34" d="M175.733,95.14l-.7,3.294-.557,2.6a34.749,34.749,0,0,0,1.991,3.482,3.433,3.433,0,0,0,1.824,1.246C176.235,103.893,175.323,98.656,175.733,95.14Z" transform="translate(-52.971 -28.889)" fill="#f7f7f7" style="mix-blend-mode: multiply;isolation: isolate"/>
        <path id="Path_35" data-name="Path 35" d="M179.79,110.32Z" transform="translate(-54.584 -33.499)" fill="#f7f7f7"/>
        <path id="Path_36" data-name="Path 36" d="M179.45,110.25Z" transform="translate(-54.481 -33.478)" fill="#f7f7f7"/>
        <path id="Path_37" data-name="Path 37" d="M178.33,110h.042Z" transform="translate(-54.14 -33.402)" fill="#f7f7f7"/>
        <path id="Path_38" data-name="Path 38" d="M178.945,110.16h-.125l.292.056h0Z" transform="translate(-54.289 -33.45)" fill="#f7f7f7"/>
        <path id="Path_39" data-name="Path 39" d="M182.451,110.37h0Z" transform="translate(-55.364 -33.514)" fill="#f7f7f7" opacity="0.32"/>
        <path id="Path_40" data-name="Path 40" d="M185.88,107.19Z" transform="translate(-56.433 -32.548)" fill="#f7f7f7" opacity="0.32"/>
        <g id="Group_25" data-name="Group 25" transform="translate(95.119 36.004)" style="mix-blend-mode: multiply;isolation: isolate">
          <path id="Path_41" data-name="Path 41" d="M141.747,52.891a3.2,3.2,0,0,0-.7-.272c-.585-.146-2.6-.543-4.47-.919v3.885l.111-.216,1.351,2.3A7.98,7.98,0,0,1,141.747,52.891Z" transform="translate(-136.58 -51.7)" fill="#f7f7f7"/>
        </g>
        <path id="Path_42" data-name="Path 42" d="M117.919,52.364a4.373,4.373,0,0,1,1.1.146h0l-.341-.16h0a3.14,3.14,0,0,0-.362-.139c-1.086-.279-7.186-1.393-7.966-1.657a3.4,3.4,0,0,0-1.017-.153,3.335,3.335,0,0,0-2.994,1.859l-3.544,7.1a6.9,6.9,0,0,1-6.155,3.8H61.72l8.119,1.7h34.9a6.866,6.866,0,0,0,6.148-3.8l3-6a4.366,4.366,0,0,1,4.032-2.695Z" transform="translate(-18.727 -15.302)" fill="#f7f7f7"/>
      </g>
    </g>
  </g>
</svg>
